<mxfile host="app.diagrams.net" modified="2020-07-21T07:12:18.574Z" agent="5.0 (Windows NT 10.0; Win64; x64) AppleWebKit/537.36 (KHTML, like Gecko) Chrome/83.0.4103.119 Safari/537.36" etag="bi9SmQ8hZHyxSkAr49aN" version="13.0.0" type="github">
  <diagram id="pDtN-Cg3gcqaqPhIMTfb" name="Page-1">
    <mxGraphModel dx="1087" dy="630" grid="1" gridSize="10" guides="1" tooltips="1" connect="1" arrows="1" fold="1" page="1" pageScale="1" pageWidth="827" pageHeight="1169" math="0" shadow="0">
      <root>
        <mxCell id="0" />
        <mxCell id="1" parent="0" />
        <mxCell id="lFmas19JV7nvMjN8YBHj-2" value="bootup" style="rounded=1;whiteSpace=wrap;html=1;" vertex="1" parent="1">
          <mxGeometry x="240" y="40" width="100" height="40" as="geometry" />
        </mxCell>
        <mxCell id="lFmas19JV7nvMjN8YBHj-3" value="" style="endArrow=classic;html=1;exitX=0.5;exitY=1;exitDx=0;exitDy=0;" edge="1" parent="1" source="lFmas19JV7nvMjN8YBHj-2">
          <mxGeometry width="50" height="50" relative="1" as="geometry">
            <mxPoint x="390" y="240" as="sourcePoint" />
            <mxPoint x="290" y="130" as="targetPoint" />
          </mxGeometry>
        </mxCell>
        <mxCell id="lFmas19JV7nvMjN8YBHj-4" value="player_start()" style="rounded=1;whiteSpace=wrap;html=1;" vertex="1" parent="1">
          <mxGeometry x="240" y="130" width="100" height="40" as="geometry" />
        </mxCell>
        <mxCell id="lFmas19JV7nvMjN8YBHj-5" value="" style="endArrow=classic;html=1;exitX=0.5;exitY=1;exitDx=0;exitDy=0;" edge="1" parent="1">
          <mxGeometry width="50" height="50" relative="1" as="geometry">
            <mxPoint x="289.71" y="170" as="sourcePoint" />
            <mxPoint x="289.71" y="220" as="targetPoint" />
          </mxGeometry>
        </mxCell>
        <mxCell id="lFmas19JV7nvMjN8YBHj-6" value="check .store file&lt;br&gt;/data/mediadrm" style="rhombus;whiteSpace=wrap;html=1;" vertex="1" parent="1">
          <mxGeometry x="210" y="220" width="160" height="80" as="geometry" />
        </mxCell>
        <mxCell id="lFmas19JV7nvMjN8YBHj-7" value="" style="endArrow=classic;html=1;exitX=0.5;exitY=1;exitDx=0;exitDy=0;" edge="1" parent="1" source="lFmas19JV7nvMjN8YBHj-6">
          <mxGeometry width="50" height="50" relative="1" as="geometry">
            <mxPoint x="390" y="530" as="sourcePoint" />
            <mxPoint x="290" y="350" as="targetPoint" />
          </mxGeometry>
        </mxCell>
        <mxCell id="lFmas19JV7nvMjN8YBHj-8" value="Yes" style="text;html=1;strokeColor=none;fillColor=none;align=center;verticalAlign=middle;whiteSpace=wrap;rounded=0;" vertex="1" parent="1">
          <mxGeometry x="290" y="300" width="40" height="20" as="geometry" />
        </mxCell>
        <mxCell id="lFmas19JV7nvMjN8YBHj-11" value="no" style="text;html=1;strokeColor=none;fillColor=none;align=center;verticalAlign=middle;whiteSpace=wrap;rounded=0;" vertex="1" parent="1">
          <mxGeometry x="370" y="240" width="40" height="20" as="geometry" />
        </mxCell>
        <mxCell id="lFmas19JV7nvMjN8YBHj-12" value="" style="endArrow=classic;html=1;exitX=0;exitY=1;exitDx=0;exitDy=0;" edge="1" parent="1" source="lFmas19JV7nvMjN8YBHj-11">
          <mxGeometry width="50" height="50" relative="1" as="geometry">
            <mxPoint x="390" y="360" as="sourcePoint" />
            <mxPoint x="440" y="260" as="targetPoint" />
          </mxGeometry>
        </mxCell>
        <mxCell id="lFmas19JV7nvMjN8YBHj-13" value="start play video" style="rounded=1;whiteSpace=wrap;html=1;" vertex="1" parent="1">
          <mxGeometry x="240" y="350" width="100" height="40" as="geometry" />
        </mxCell>
        <mxCell id="lFmas19JV7nvMjN8YBHj-14" value="init CA&lt;br&gt;vmconfig" style="rounded=1;whiteSpace=wrap;html=1;" vertex="1" parent="1">
          <mxGeometry x="440" y="240" width="100" height="40" as="geometry" />
        </mxCell>
        <mxCell id="lFmas19JV7nvMjN8YBHj-16" value="" style="endArrow=classic;html=1;exitX=0.5;exitY=1;exitDx=0;exitDy=0;" edge="1" parent="1">
          <mxGeometry width="50" height="50" relative="1" as="geometry">
            <mxPoint x="489.71000000000026" y="280" as="sourcePoint" />
            <mxPoint x="489.71000000000026" y="330" as="targetPoint" />
          </mxGeometry>
        </mxCell>
        <mxCell id="lFmas19JV7nvMjN8YBHj-18" value="success" style="text;html=1;strokeColor=none;fillColor=none;align=center;verticalAlign=middle;whiteSpace=wrap;rounded=0;" vertex="1" parent="1">
          <mxGeometry x="490" y="290" width="60" height="20" as="geometry" />
        </mxCell>
        <mxCell id="lFmas19JV7nvMjN8YBHj-19" value="start play video" style="rounded=1;whiteSpace=wrap;html=1;" vertex="1" parent="1">
          <mxGeometry x="440" y="330" width="100" height="40" as="geometry" />
        </mxCell>
      </root>
    </mxGraphModel>
  </diagram>
</mxfile>
